<svg id="visual" viewBox="0 0 1920 1080" width="1920" height="1080" xmlns="http://www.w3.org/2000/svg" xmlns:xlink="http://www.w3.org/1999/xlink" version="1.1"><path d="M0 87L160 87L160 77L320 77L320 77L480 77L480 33L640 33L640 66L800 66L800 87L960 87L960 98L1120 98L1120 87L1280 87L1280 87L1440 87L1440 77L1600 77L1600 44L1760 44L1760 98L1920 98L1920 98L1920 0L1920 0L1760 0L1760 0L1600 0L1600 0L1440 0L1440 0L1280 0L1280 0L1120 0L1120 0L960 0L960 0L800 0L800 0L640 0L640 0L480 0L480 0L320 0L320 0L160 0L160 0L0 0Z" fill="#435933"></path><path d="M0 239L160 239L160 152L320 152L320 195L480 195L480 185L640 185L640 239L800 239L800 185L960 185L960 195L1120 195L1120 228L1280 228L1280 217L1440 217L1440 336L1600 336L1600 163L1760 163L1760 260L1920 260L1920 195L1920 96L1920 96L1760 96L1760 42L1600 42L1600 75L1440 75L1440 85L1280 85L1280 85L1120 85L1120 96L960 96L960 85L800 85L800 64L640 64L640 31L480 31L480 75L320 75L320 75L160 75L160 85L0 85Z" fill="#405630"></path><path d="M0 584L160 584L160 519L320 519L320 433L480 433L480 563L640 563L640 368L800 368L800 541L960 541L960 325L1120 325L1120 347L1280 347L1280 563L1440 563L1440 595L1600 595L1600 465L1760 465L1760 390L1920 390L1920 487L1920 193L1920 258L1760 258L1760 161L1600 161L1600 334L1440 334L1440 215L1280 215L1280 226L1120 226L1120 193L960 193L960 183L800 183L800 237L640 237L640 183L480 183L480 193L320 193L320 150L160 150L160 237L0 237Z" fill="#3d532e"></path><path d="M0 681L160 681L160 573L320 573L320 541L480 541L480 606L640 606L640 444L800 444L800 595L960 595L960 411L1120 411L1120 433L1280 433L1280 627L1440 627L1440 660L1600 660L1600 519L1760 519L1760 487L1920 487L1920 563L1920 485L1920 388L1760 388L1760 463L1600 463L1600 593L1440 593L1440 561L1280 561L1280 345L1120 345L1120 323L960 323L960 539L800 539L800 366L640 366L640 561L480 561L480 431L320 431L320 517L160 517L160 582L0 582Z" fill="#3a502b"></path><path d="M0 746L160 746L160 735L320 735L320 703L480 703L480 681L640 681L640 541L800 541L800 725L960 725L960 498L1120 498L1120 617L1280 617L1280 681L1440 681L1440 725L1600 725L1600 595L1760 595L1760 627L1920 627L1920 714L1920 561L1920 485L1760 485L1760 517L1600 517L1600 658L1440 658L1440 625L1280 625L1280 431L1120 431L1120 409L960 409L960 593L800 593L800 442L640 442L640 604L480 604L480 539L320 539L320 571L160 571L160 679L0 679Z" fill="#384d29"></path><path d="M0 854L160 854L160 779L320 779L320 779L480 779L480 735L640 735L640 595L800 595L800 811L960 811L960 617L1120 617L1120 692L1280 692L1280 800L1440 800L1440 789L1600 789L1600 660L1760 660L1760 735L1920 735L1920 811L1920 712L1920 625L1760 625L1760 593L1600 593L1600 723L1440 723L1440 679L1280 679L1280 615L1120 615L1120 496L960 496L960 723L800 723L800 539L640 539L640 679L480 679L480 701L320 701L320 733L160 733L160 744L0 744Z" fill="#354a26"></path><path d="M0 1027L160 1027L160 930L320 930L320 973L480 973L480 919L640 919L640 1016L800 1016L800 973L960 973L960 1027L1120 1027L1120 1038L1280 1038L1280 973L1440 973L1440 1016L1600 1016L1600 941L1760 941L1760 984L1920 984L1920 962L1920 809L1920 733L1760 733L1760 658L1600 658L1600 787L1440 787L1440 798L1280 798L1280 690L1120 690L1120 615L960 615L960 809L800 809L800 593L640 593L640 733L480 733L480 777L320 777L320 777L160 777L160 852L0 852Z" fill="#334724"></path><path d="M0 1081L160 1081L160 1081L320 1081L320 1081L480 1081L480 1081L640 1081L640 1081L800 1081L800 1081L960 1081L960 1081L1120 1081L1120 1081L1280 1081L1280 1081L1440 1081L1440 1081L1600 1081L1600 1081L1760 1081L1760 1081L1920 1081L1920 1081L1920 960L1920 982L1760 982L1760 939L1600 939L1600 1014L1440 1014L1440 971L1280 971L1280 1036L1120 1036L1120 1025L960 1025L960 971L800 971L800 1014L640 1014L640 917L480 917L480 971L320 971L320 928L160 928L160 1025L0 1025Z" fill="#304421"></path></svg>